<svg version="1.1" id="Layer_1" xmlns="http://www.w3.org/2000/svg" xmlns:xlink="http://www.w3.org/1999/xlink" x="0px" y="0px"
	 viewBox="0 0 100 100" style="enable-background:new 0 0 100 100;" xml:space="preserve">
<style type="text/css">
	.st0{fill:none;}
	.st1{fill:none;stroke:#DDDDDD;stroke-width:1.6789;stroke-miterlimit:10;}
	.st2{fill:url(#SVGID_1_);}
</style>
<pattern  width="100" height="100" patternUnits="userSpaceOnUse" id="New_Pattern" viewBox="0 -113.6 100 100" style="overflow:visible;">
	<g>
		<rect y="-113.6" class="st0" width="100" height="100"/>
		<g>
			<path class="st1" d="M10.1-16.8c-4.4,0-8,3.6-8,8s3.6,8,8,8c2.5,0,4.8-1.2,6.2-3"/>
			<path class="st1" d="M10.1-16.8c-4.4,0-8,3.6-8,8s3.6,8,8,8c2.5,0,4.8-1.2,6.2-3"/>
			<path class="st1" d="M10.1-0.8c-4.4,0-8-3.6-8-8s3.6-8,8-8c2.5,0,4.8,1.4,6.2,3.2"/>
			<path class="st1" d="M56.2-16.8c4.4,0,8,3.6,8,8s-3.6,8-8,8c-2.5,0-4.8-1.2-6.2-3"/>
			<path class="st1" d="M56.2-16.8c4.4,0,8,3.6,8,8s-3.6,8-8,8c-2.5,0-4.8-1.2-6.2-3"/>
			<path class="st1" d="M56.2-0.8c4.4,0,8-3.6,8-8s-3.6-8-8-8c-2.5,0-4.8,1.4-6.2,3.2"/>
			<path class="st1" d="M76.4-16.8c-4.4,0-8,3.6-8,8s3.6,8,8,8c2.5,0,4.8-1.2,6.2-3"/>
			<path class="st1" d="M76.4-16.8c-4.4,0-8,3.6-8,8s3.6,8,8,8c2.5,0,4.8-1.2,6.2-3"/>
			<path class="st1" d="M76.4-0.8c-4.4,0-8-3.6-8-8s3.6-8,8-8c2.5,0,4.8,1.4,6.2,3.2"/>
		</g>
		<g>
			<path class="st1" d="M10.1-80.8c-4.4,0-8-3.6-8-8c0-4.4,3.6-8,8-8c2.5,0,4.8,1.2,6.2,3"/>
			<path class="st1" d="M22.5-106.8c4.4,0,8,3.6,8,8c0,4.4-3.6,8-8,8c-2.5,0-4.8-1.2-6.2-3"/>
			<path class="st1" d="M10.1-116.8c-4.4,0-8,3.6-8,8c0,4.4,3.6,8,8,8c2.5,0,4.8-1.2,6.2-3"/>
			<path class="st1" d="M22.5-90.8c4.4,0,8-3.6,8-8c0-4.4-3.6-8-8-8c-2.5,0-4.8,1.2-6.2,3"/>
			<path class="st1" d="M22.5-86.6c4.4,0,8,3.6,8,8c0,4.4-3.6,8-8,8c-2.5,0-4.8-1.2-6.2-3"/>
			<path class="st1" d="M22.5-70.6c4.4,0,8-3.6,8-8c0-4.4-3.6-8-8-8c-2.5,0-4.8,1.2-6.2,3"/>
			<path class="st1" d="M10.1-116.8c-4.4,0-8,3.6-8,8c0,4.4,3.6,8,8,8c2.5,0,4.8-1.2,6.2-3"/>
			<path class="st1" d="M10.1-96.8c-4.4,0-8,3.6-8,8c0,4.4,3.6,8,8,8c2.5,0,4.8-1.2,6.2-3"/>
			<path class="st1" d="M10.1-60.7c-4.4,0-8-3.6-8-8c0-4.4,3.6-8,8-8c2.5,0,4.8,1.2,6.2,3"/>
			<path class="st1" d="M10.1-76.6c-4.4,0-8,3.6-8,8c0,4.4,3.6,8,8,8c2.5,0,4.8-1.2,6.2-3"/>
			<path class="st1" d="M10.1-100.8c-4.4,0-8-3.6-8-8c0-4.4,3.6-8,8-8c2.5,0,4.8,1.4,6.2,3.2"/>
			<path class="st1" d="M10.1-20.6c-4.4,0-8-3.6-8-8s3.6-8,8-8c2.5,0,4.8,1.2,6.2,3"/>
			<path class="st1" d="M10.1-36.6c-4.4,0-8,3.6-8,8s3.6,8,8,8c2.5,0,4.8-1.2,6.2-3"/>
			<path class="st1" d="M22.5-10.6c4.4,0,8-3.6,8-8s-3.6-8-8-8c-2.5,0-4.8,1.2-6.2,3"/>
			<path class="st1" d="M22.5-66.5c4.4,0,8,3.6,8,8s-3.6,8-8,8c-2.5,0-4.8-1.2-6.2-3"/>
			<path class="st1" d="M22.5-50.5c4.4,0,8-3.6,8-8s-3.6-8-8-8c-2.5,0-4.8,1.2-6.2,3"/>
			<path class="st1" d="M10.1-40.8c-4.4,0-8-3.6-8-8s3.6-8,8-8c2.5,0,4.8,1.5,6.2,3.3"/>
			<path class="st1" d="M22.5-46.6c4.4,0,8,3.6,8,8s-3.6,8-8,8c-2.5,0-4.8-1.2-6.2-3"/>
			<path class="st1" d="M22.5-30.6c4.4,0,8-3.6,8-8s-3.6-8-8-8c-2.5,0-4.8,1.2-6.2,3"/>
			<path class="st1" d="M10.1-56.8c-4.4,0-8,3.6-8,8s3.6,8,8,8c2.5,0,4.8-1.2,6.2-3"/>
			<path class="st1" d="M22.5-26.6c4.4,0,8,3.6,8,8s-3.6,8-8,8c-2.5,0-4.8-1.2-6.2-3"/>
			<path class="st1" d="M56.2-80.8c4.4,0,8-3.6,8-8c0-4.4-3.6-8-8-8c-2.5,0-4.8,1.2-6.2,3"/>
			<path class="st1" d="M43.8-106.8c-4.4,0-8,3.6-8,8c0,4.4,3.6,8,8,8c2.5,0,4.8-1.2,6.2-3"/>
			<path class="st1" d="M56.2-116.8c4.4,0,8,3.6,8,8c0,4.4-3.6,8-8,8c-2.5,0-4.8-1.2-6.2-3"/>
			<path class="st1" d="M43.8-90.8c-4.4,0-8-3.6-8-8c0-4.4,3.6-8,8-8c2.5,0,4.8,1.2,6.2,3"/>
			<path class="st1" d="M43.8-86.6c-4.4,0-8,3.6-8,8c0,4.4,3.6,8,8,8c2.5,0,4.8-1.2,6.2-3"/>
			<path class="st1" d="M43.8-70.6c-4.4,0-8-3.6-8-8c0-4.4,3.6-8,8-8c2.5,0,4.8,1.2,6.2,3"/>
			<path class="st1" d="M56.2-116.8c4.4,0,8,3.6,8,8c0,4.4-3.6,8-8,8c-2.5,0-4.8-1.2-6.2-3"/>
			<path class="st1" d="M56.2-96.8c4.4,0,8,3.6,8,8c0,4.4-3.6,8-8,8c-2.5,0-4.8-1.2-6.2-3"/>
			<path class="st1" d="M56.2-60.7c4.4,0,8-3.6,8-8c0-4.4-3.6-8-8-8c-2.5,0-4.8,1.2-6.2,3"/>
			<path class="st1" d="M56.2-76.6c4.4,0,8,3.6,8,8c0,4.4-3.6,8-8,8c-2.5,0-4.8-1.2-6.2-3"/>
			<path class="st1" d="M56.2-100.8c4.4,0,8-3.6,8-8c0-4.4-3.6-8-8-8c-2.5,0-4.8,1.4-6.2,3.2"/>
			<path class="st1" d="M56.2-20.6c4.4,0,8-3.6,8-8s-3.6-8-8-8c-2.5,0-4.8,1.2-6.2,3"/>
			<path class="st1" d="M56.2-36.6c4.4,0,8,3.6,8,8s-3.6,8-8,8c-2.5,0-4.8-1.2-6.2-3"/>
			<path class="st1" d="M43.8-10.6c-4.4,0-8-3.6-8-8s3.6-8,8-8c2.5,0,4.8,1.2,6.2,3"/>
			<path class="st1" d="M43.8-66.5c-4.4,0-8,3.6-8,8s3.6,8,8,8c2.5,0,4.8-1.2,6.2-3"/>
			<path class="st1" d="M43.8-50.5c-4.4,0-8-3.6-8-8s3.6-8,8-8c2.5,0,4.8,1.2,6.2,3"/>
			<path class="st1" d="M56.2-40.8c4.4,0,8-3.6,8-8s-3.6-8-8-8c-2.5,0-4.8,1.5-6.2,3.3"/>
			<path class="st1" d="M43.8-46.6c-4.4,0-8,3.6-8,8s3.6,8,8,8c2.5,0,4.8-1.2,6.2-3"/>
			<path class="st1" d="M43.8-30.6c-4.4,0-8-3.6-8-8s3.6-8,8-8c2.5,0,4.8,1.2,6.2,3"/>
			<path class="st1" d="M56.2-56.8c4.4,0,8,3.6,8,8s-3.6,8-8,8c-2.5,0-4.8-1.2-6.2-3"/>
			<path class="st1" d="M43.8-26.6c-4.4,0-8,3.6-8,8s3.6,8,8,8c2.5,0,4.8-1.2,6.2-3"/>
			<path class="st1" d="M76.4-80.8c-4.4,0-8-3.6-8-8c0-4.4,3.6-8,8-8c2.5,0,4.8,1.2,6.2,3"/>
			<path class="st1" d="M88.8-106.8c4.4,0,8,3.6,8,8c0,4.4-3.6,8-8,8c-2.5,0-4.8-1.2-6.2-3"/>
			<path class="st1" d="M76.4-116.8c-4.4,0-8,3.6-8,8c0,4.4,3.6,8,8,8c2.5,0,4.8-1.2,6.2-3"/>
			<path class="st1" d="M88.8-90.8c4.4,0,8-3.6,8-8c0-4.4-3.6-8-8-8c-2.5,0-4.8,1.2-6.2,3"/>
			<path class="st1" d="M88.8-86.6c4.4,0,8,3.6,8,8c0,4.4-3.6,8-8,8c-2.5,0-4.8-1.2-6.2-3"/>
			<path class="st1" d="M88.8-70.6c4.4,0,8-3.6,8-8c0-4.4-3.6-8-8-8c-2.5,0-4.8,1.2-6.2,3"/>
			<path class="st1" d="M76.4-116.8c-4.4,0-8,3.6-8,8c0,4.4,3.6,8,8,8c2.5,0,4.8-1.2,6.2-3"/>
			<path class="st1" d="M76.4-96.8c-4.4,0-8,3.6-8,8c0,4.4,3.6,8,8,8c2.5,0,4.8-1.2,6.2-3"/>
			<path class="st1" d="M76.4-60.7c-4.4,0-8-3.6-8-8c0-4.4,3.6-8,8-8c2.5,0,4.8,1.2,6.2,3"/>
			<path class="st1" d="M76.4-76.6c-4.4,0-8,3.6-8,8c0,4.4,3.6,8,8,8c2.5,0,4.8-1.2,6.2-3"/>
			<path class="st1" d="M76.4-100.8c-4.4,0-8-3.6-8-8c0-4.4,3.6-8,8-8c2.5,0,4.8,1.4,6.2,3.2"/>
			<path class="st1" d="M76.4-20.6c-4.4,0-8-3.6-8-8s3.6-8,8-8c2.5,0,4.8,1.2,6.2,3"/>
			<path class="st1" d="M76.4-36.6c-4.4,0-8,3.6-8,8s3.6,8,8,8c2.5,0,4.8-1.2,6.2-3"/>
			<path class="st1" d="M88.8-10.6c4.4,0,8-3.6,8-8s-3.6-8-8-8c-2.5,0-4.8,1.2-6.2,3"/>
			<path class="st1" d="M88.8-66.5c4.4,0,8,3.6,8,8s-3.6,8-8,8c-2.5,0-4.8-1.2-6.2-3"/>
			<path class="st1" d="M88.8-50.5c4.4,0,8-3.6,8-8s-3.6-8-8-8c-2.5,0-4.8,1.2-6.2,3"/>
			<path class="st1" d="M76.4-40.8c-4.4,0-8-3.6-8-8s3.6-8,8-8c2.5,0,4.8,1.5,6.2,3.3"/>
			<path class="st1" d="M88.8-46.6c4.4,0,8,3.6,8,8s-3.6,8-8,8c-2.5,0-4.8-1.2-6.2-3"/>
			<path class="st1" d="M88.8-30.6c4.4,0,8-3.6,8-8s-3.6-8-8-8c-2.5,0-4.8,1.2-6.2,3"/>
			<path class="st1" d="M76.4-56.8c-4.4,0-8,3.6-8,8s3.6,8,8,8c2.5,0,4.8-1.2,6.2-3"/>
			<path class="st1" d="M88.8-26.6c4.4,0,8,3.6,8,8s-3.6,8-8,8c-2.5,0-4.8-1.2-6.2-3"/>
		</g>
		<g>
			<path class="st1" d="M22.5-110.6c4.4,0,8-3.6,8-8c0-4.4-3.6-8-8-8c-2.5,0-4.8,1.2-6.2,3"/>
			<path class="st1" d="M22.5-126.6c4.4,0,8,3.6,8,8c0,4.4-3.6,8-8,8c-2.5,0-4.8-1.2-6.2-3"/>
			<path class="st1" d="M43.8-110.6c-4.4,0-8-3.6-8-8c0-4.4,3.6-8,8-8c2.5,0,4.8,1.2,6.2,3"/>
			<path class="st1" d="M43.8-126.6c-4.4,0-8,3.6-8,8c0,4.4,3.6,8,8,8c2.5,0,4.8-1.2,6.2-3"/>
			<path class="st1" d="M88.8-110.6c4.4,0,8-3.6,8-8c0-4.4-3.6-8-8-8c-2.5,0-4.8,1.2-6.2,3"/>
			<path class="st1" d="M88.8-126.6c4.4,0,8,3.6,8,8c0,4.4-3.6,8-8,8c-2.5,0-4.8-1.2-6.2-3"/>
		</g>
	</g>
</pattern>
<pattern  id="SVGID_1_" xlink:href="#New_Pattern" patternTransform="matrix(1 0 0 1 50 50)">
</pattern>
<rect class="st2" width="100" height="100"/>
</svg>
